<svg width="42" height="42" viewBox="0 0 42 42" fill="none" xmlns="http://www.w3.org/2000/svg">
<path d="M33.3786 28.0453L38.4955 33.1622C39.3264 33.9931 39.3264 35.3402 38.4955 36.1711C34.0034 40.6633 26.8916 41.1687 21.8093 37.357L19.2246 35.4185C14.4325 31.8244 10.1756 27.5675 6.58153 22.7754L4.64302 20.1907C0.831283 15.1084 1.3367 7.99664 5.82887 3.50446C6.65976 2.67357 8.0069 2.67357 8.83779 3.50446L13.9547 8.62135C15.4525 10.1191 15.4525 12.5475 13.9547 14.0453L12.6341 15.3659C12.2554 15.7446 12.1615 16.3231 12.401 16.802C15.1699 22.3398 19.6602 26.8301 25.198 29.599C25.6769 29.8385 26.2554 29.7446 26.6341 29.3659L27.9547 28.0453C29.4525 26.5475 31.8809 26.5475 33.3786 28.0453Z" stroke="white" stroke-width="4"/>
</svg>
